<svg width="34.2" height="34.2" xmlns:xlink="http://www.w3.org/1999/xlink" xmlns="http://www.w3.org/2000/svg"><defs><linearGradient id="b" x1="17.5" x2="17.5" y1="7" y2="41" gradientTransform="matrix(1.03 0 0 1 -.952 -6.961)" gradientUnits="userSpaceOnUse"><stop offset="0" stop-color="#829fff"/><stop offset="1" stop-color="#1341d6"/></linearGradient><linearGradient id="a" x1="1" x2="34" y1="24" y2="24" gradientTransform="matrix(1.03 0 0 1 5.97 0)" gradientUnits="userSpaceOnUse"><stop offset="0" stop-color="#7595ff" stop-opacity="0"/><stop offset=".406" stop-color="#7494fe" stop-opacity=".011"/><stop offset=".553" stop-color="#6f8ffa" stop-opacity=".052"/><stop offset=".657" stop-color="#6788f4" stop-opacity=".123"/><stop offset=".741" stop-color="#5c7deb" stop-opacity=".225"/><stop offset=".813" stop-color="#4d6fdf" stop-opacity=".358"/><stop offset=".877" stop-color="#3b5ed1" stop-opacity=".522"/><stop offset=".935" stop-color="#2549bf" stop-opacity=".717"/><stop offset=".987" stop-color="#0c32ac" stop-opacity=".936"/><stop offset="1" stop-color="#052ba6"/></linearGradient><linearGradient id="d" x1="-263" x2="-230" y1="296" y2="296" gradientTransform="matrix(1.03 0 0 1 277.97 -272)" xlink:href="#a"/><linearGradient id="e" x1="-527" x2="-494" gradientTransform="matrix(1.03 0 0 1 549.97 0)" xlink:href="#a"/><linearGradient id="f" x1="-263" x2="-230" y1="-248" y2="-248" gradientTransform="matrix(1.03 0 0 1 277.97 272)" xlink:href="#a"/><linearGradient xlink:href="#a" id="c" gradientUnits="userSpaceOnUse" gradientTransform="matrix(1.03 0 0 1 5.97 0)" x1="1" y1="24" x2="34" y2="24"/></defs><rect width="34" height="34" x=".078" y=".039" fill="url(#b)" rx="3"/><g opacity=".5" transform="translate(-6.922 -6.961)"><rect width="34" height="34" x="7" y="7" fill="url(#c)" rx="3"/><rect width="34" height="34" x="7" y="7" fill="url(#d)" rx="3" transform="rotate(-90 24 24)"/><rect width="34" height="34" x="7" y="7" fill="url(#e)" rx="3" transform="rotate(180 24 24)"/><rect width="34" height="34" x="7" y="7" fill="url(#f)" rx="3" transform="rotate(90 24 24)"/></g></svg>