<svg xmlns="http://www.w3.org/2000/svg" viewBox="0 0 58 58"><circle cx="29" cy="29" r="29" fill="#949493" style="--darkreader-inline-fill:#5b6164"/><circle cx="24" cy="23" r="18" fill="#afafaa" style="--darkreader-inline-fill:#4f5456"/><circle cx="24" cy="23" r="11" fill="#cececc" style="--darkreader-inline-fill:#3f4445"/><path fill="#949493" d="M28 19c-2.757 0-5-2.243-5-5s2.243-5 5-5 5 2.243 5 5-2.243 5-5 5zm0-8c-1.654 0-3 1.346-3 3s1.346 3 3 3 3-1.346 3-3-1.346-3-3-3z" style="--darkreader-inline-fill:#9f988e"/><path fill="#c7cac7" d="M11 33c-2.243 0-4-2.416-4-5.5S8.757 22 11 22s4 2.416 4 5.5-1.757 5.5-4 5.5zm0-9c-.946 0-2 1.438-2 3.5s1.054 3.5 2 3.5 2-1.438 2-3.5-1.054-3.5-2-3.5z" style="--darkreader-inline-fill:#424548"/><path fill="#c7cac7" d="M15.369 48.312c-1.204 0-2.557-.586-3.671-1.7-.839-.839-1.414-1.862-1.617-2.88-.229-1.148.041-2.208.742-2.91.701-.7 1.763-.972 2.909-.742 1.018.204 2.041.778 2.88 1.617 1.868 1.868 2.252 4.411.875 5.789-.556.557-1.302.826-2.118.826zm-2.429-6.311c-.241 0-.516.05-.702.236-.313.312-.241.875-.196 1.103.125.625.516 1.303 1.07 1.858 1.098 1.098 2.47 1.368 2.961.875.492-.492.223-1.863-.875-2.96-.555-.555-1.232-.945-1.858-1.07a2.021 2.021 0 00-.4-.042zM43 33c-2.757 0-5-2.243-5-5a1 1 0 012 0c0 1.654 1.346 3 3 3s3-1.346 3-3-1.346-3-3-3a1 1 0 010-2c2.757 0 5 2.243 5 5s-2.243 5-5 5z" style="--darkreader-inline-fill:#bbb7b0"/><path fill="#c7cac7" d="M32 53c-4.411 0-8-3.589-8-8s3.589-8 8-8a1 1 0 010 2c-3.309 0-6 2.691-6 6s2.691 6 6 6 6-2.691 6-6a1 1 0 012 0c0 4.411-3.589 8-8 8z" style="--darkreader-inline-fill:#424548"/><path fill="#c7cac7" d="M46 44a1 1 0 010-2c1.654 0 3-1.346 3-3a1 1 0 012 0c0 2.757-2.243 5-5 5z" style="--darkreader-inline-fill:#bbb7b0"/><path fill="#949493" d="M10 17a1 1 0 01-1-1c0-2.206 1.794-4 4-4a1 1 0 010 2c-1.103 0-2 .897-2 2a1 1 0 01-1 1zm18 17a1 1 0 01-1-1c0-2.206 1.794-4 4-4a1 1 0 010 2c-1.103 0-2 .897-2 2a1 1 0 01-1 1zm-4-7a1 1 0 01-1-1c0-1.103-.897-2-2-2a1 1 0 010-2c2.206 0 4 1.794 4 4a1 1 0 01-1 1z" style="--darkreader-inline-fill:#9f988e"/><path fill="#c7cac7" d="M45 15a1 1 0 01-1-1c0-2.206-1.794-4-4-4a1 1 0 010-2c3.309 0 6 2.691 6 6a1 1 0 01-1 1z" style="--darkreader-inline-fill:#bbb7b0"/></svg>